<svg width="15" height="15" viewBox="0 0 15 15" fill="none" xmlns="http://www.w3.org/2000/svg">
<path d="M12.6536 14.66H10.3869C9.85647 14.66 9.34776 14.4493 8.97269 14.0742C8.59761 13.6991 8.3869 13.1904 8.3869 12.66V9.67997C8.38634 9.55235 8.3576 9.42643 8.30273 9.31121C8.24787 9.19598 8.16823 9.0943 8.06952 9.01342C7.9708 8.93253 7.85544 8.87445 7.73168 8.84331C7.60792 8.81218 7.4788 8.80876 7.35357 8.8333C7.14559 8.87854 6.96016 8.9955 6.82974 9.1637C6.69933 9.3319 6.63224 9.54062 6.64023 9.7533V12.6333C6.64023 13.1637 6.42952 13.6724 6.05445 14.0475C5.67937 14.4226 5.17067 14.6333 4.64023 14.6333H2.3469C1.81647 14.6333 1.30776 14.4226 0.932687 14.0475C0.557614 13.6724 0.3469 13.1637 0.3469 12.6333V7.0533C0.341329 6.56255 0.441447 6.07635 0.640453 5.62772C0.83946 5.17909 1.13269 4.77855 1.50023 4.4533L5.34023 1.11997C5.94307 0.607083 6.70874 0.325439 7.50023 0.325439C8.29173 0.325439 9.0574 0.607083 9.66023 1.11997L13.4936 4.4533C13.8656 4.77529 14.1642 5.17349 14.3689 5.62093C14.5737 6.06837 14.6798 6.55458 14.6802 7.04664V12.6333C14.6838 12.9004 14.6338 13.1656 14.5333 13.4131C14.4327 13.6606 14.2835 13.8855 14.0946 14.0744C13.9057 14.2633 13.6809 14.4124 13.4334 14.513C13.1859 14.6136 12.9207 14.6636 12.6536 14.66ZM7.50023 7.82664C7.99238 7.82663 8.46447 8.02168 8.8131 8.36906C9.16173 8.71644 9.35847 9.18783 9.36023 9.67997V12.6333C9.36023 12.9056 9.4684 13.1667 9.66094 13.3593C9.85347 13.5518 10.1146 13.66 10.3869 13.66H12.6536C12.789 13.6609 12.9232 13.6349 13.0485 13.5837C13.1738 13.5325 13.2878 13.4571 13.3838 13.3616C13.4799 13.2662 13.5561 13.1527 13.6081 13.0277C13.6601 12.9027 13.6869 12.7687 13.6869 12.6333V7.04664C13.6849 6.69669 13.6077 6.35125 13.4605 6.03377C13.3132 5.71629 13.0994 5.4342 12.8336 5.20664L9.00023 1.8733C8.58019 1.51458 8.04594 1.31749 7.49357 1.31749C6.94119 1.31749 6.40694 1.51458 5.9869 1.8733L2.1669 5.2133C1.90053 5.44004 1.6868 5.72212 1.54058 6.0399C1.39435 6.35767 1.31916 6.7035 1.32023 7.0533V12.6333C1.32023 12.7687 1.34701 12.9027 1.39902 13.0277C1.45103 13.1527 1.52725 13.2662 1.62329 13.3616C1.71933 13.4571 1.8333 13.5325 1.95863 13.5837C2.08396 13.6349 2.21818 13.6609 2.35357 13.66H4.62023C4.89137 13.6582 5.15079 13.5493 5.34189 13.3569C5.53299 13.1646 5.64024 12.9044 5.64023 12.6333V9.7533C5.63509 9.30395 5.78773 8.86703 6.07156 8.51863C6.3554 8.17023 6.75245 7.93243 7.19357 7.84664C7.29523 7.83312 7.39768 7.82644 7.50023 7.82664Z" fill="#636968"/>
</svg>
