<svg width="23" height="23" viewBox="0 0 23 23" fill="none" xmlns="http://www.w3.org/2000/svg">
<path d="M18.7238 13.4698C17.9679 12.3301 17.5778 10.987 17.6055 9.61977V9.48227C17.6033 8.04083 17.0655 6.65164 16.0966 5.58445C15.1276 4.51726 13.7967 3.84822 12.3621 3.70727V2.63477C12.3621 2.54448 12.3443 2.45508 12.3098 2.37167C12.2752 2.28826 12.2246 2.21247 12.1608 2.14863C12.0969 2.08479 12.0211 2.03415 11.9377 1.9996C11.8543 1.96505 11.7649 1.94727 11.6746 1.94727C11.5843 1.94727 11.4949 1.96505 11.4115 1.9996C11.3281 2.03415 11.2523 2.08479 11.1885 2.14863C11.1246 2.21247 11.074 2.28826 11.0395 2.37167C11.0049 2.45508 10.9871 2.54448 10.9871 2.63477V3.74393C10.4778 3.80346 9.97847 3.92982 9.50212 4.11977C8.44803 4.5558 7.55042 5.30038 6.92713 6.25576C6.30384 7.21114 5.98401 8.33267 6.00962 9.4731C6.02557 10.9247 5.5651 12.3415 4.69879 13.5064L4.08462 14.3498C3.75405 14.8024 3.57444 15.3476 3.57129 15.9081C3.57129 16.6058 3.84847 17.275 4.34184 17.7684C4.83522 18.2618 5.50438 18.5389 6.20212 18.5389H9.21796V18.8414C9.29917 19.4341 9.59229 19.9773 10.0431 20.3705C10.4939 20.7638 11.0718 20.9804 11.67 20.9804C12.2682 20.9804 12.8462 20.7638 13.297 20.3705C13.7478 19.9773 14.0409 19.4341 14.1221 18.8414V18.5389H17.1563C17.6342 18.5309 18.1012 18.3951 18.5088 18.1456C18.9165 17.8961 19.2499 17.542 19.4744 17.1201C19.6989 16.6982 19.8064 16.2238 19.7856 15.7463C19.7649 15.2688 19.6166 14.8056 19.3563 14.4048L18.7238 13.4698ZM12.7563 18.6856C12.7166 18.943 12.5853 19.1775 12.3866 19.3459C12.1879 19.5143 11.9351 19.6053 11.6746 19.6023C11.4152 19.6016 11.1643 19.5092 10.9664 19.3415C10.7685 19.1737 10.6362 18.9414 10.593 18.6856V18.5389H12.7563V18.6856ZM17.1563 17.1639H6.20212C5.86906 17.1639 5.54963 17.0316 5.31411 16.7961C5.0786 16.5606 4.94629 16.2412 4.94629 15.9081C4.95725 15.6345 5.06066 15.3728 5.23962 15.1656L5.85379 14.3223C6.88682 12.8956 7.42447 11.1699 7.38462 9.40893C7.37214 8.55704 7.61524 7.72095 8.08254 7.00855C8.54985 6.29615 9.21992 5.74014 10.0063 5.41227C10.5891 5.17878 11.2117 5.06048 11.8396 5.06393C13.0074 5.06636 14.1266 5.53197 14.9515 6.35858C15.7763 7.1852 16.2396 8.3053 16.2396 9.4731V9.61977C16.2146 11.2487 16.6844 12.8469 17.5871 14.2031L18.2013 15.1198C18.3456 15.34 18.4191 15.5991 18.4121 15.8623C18.4183 16.031 18.3904 16.1992 18.33 16.3569C18.2697 16.5146 18.1781 16.6585 18.0609 16.7801C17.9437 16.9016 17.8031 16.9982 17.6477 17.0641C17.4923 17.1301 17.3251 17.164 17.1563 17.1639Z" fill="#7E8299"/>
<path d="M3.85541 10.1881C3.94521 10.1758 4.03168 10.1457 4.10984 10.0998C4.188 10.0539 4.25631 9.993 4.31084 9.92058C4.36536 9.84816 4.40503 9.76568 4.42755 9.67787C4.45008 9.59007 4.45501 9.49867 4.44208 9.40895C4.3037 8.57823 4.38962 7.72563 4.69097 6.93923C4.99232 6.15282 5.49816 5.46113 6.15625 4.93562C6.29376 4.83141 6.38706 4.6793 6.41762 4.50948C6.44819 4.33967 6.41379 4.16458 6.32125 4.01895C6.21839 3.87964 6.06614 3.78494 5.89571 3.75426C5.72527 3.72358 5.54956 3.75925 5.40458 3.85395C4.53793 4.51999 3.86567 5.40617 3.45778 6.42023C3.0499 7.43429 2.92132 8.53916 3.08541 9.61979C3.10772 9.78337 3.18892 9.93321 3.3138 10.0412C3.43867 10.1492 3.59865 10.208 3.76375 10.2065L3.85541 10.1881Z" fill="#7E8299"/>
<path d="M17.9446 3.80813C17.872 3.74532 17.787 3.69842 17.6952 3.67044C17.6033 3.64247 17.5066 3.63405 17.4113 3.64572C17.316 3.65739 17.2242 3.6889 17.1418 3.73821C17.0594 3.78752 16.9883 3.85354 16.933 3.93202C16.8776 4.0105 16.8394 4.09969 16.8206 4.19386C16.8019 4.28803 16.803 4.38508 16.8241 4.47876C16.8451 4.57245 16.8855 4.66068 16.9428 4.73779C17 4.8149 17.0727 4.87917 17.1563 4.92646C17.8121 5.45589 18.3162 6.14948 18.6173 6.93676C18.9183 7.72405 19.0057 8.57699 18.8704 9.40896C18.8575 9.49868 18.8624 9.59007 18.885 9.67788C18.9075 9.76569 18.9472 9.84817 19.0017 9.92059C19.0562 9.993 19.1245 10.0539 19.2027 10.0998C19.2808 10.1458 19.3673 10.1758 19.4571 10.1881H19.5488C19.7139 10.1896 19.8738 10.1309 19.9987 10.0229C20.1236 9.91489 20.2048 9.76505 20.2271 9.60146C20.4005 8.51989 20.2801 7.4116 19.8786 6.39246C19.4771 5.37333 18.8091 4.48078 17.9446 3.80813Z" fill="#7E8299"/>
</svg>
