<svg width="45" height="41" viewBox="0 0 45 41" fill="none" xmlns="http://www.w3.org/2000/svg">
<rect x="-0.5" y="0.5" width="43" height="38.7692" rx="5.5" transform="matrix(-1 0 0 1 43.3594 0.568481)" stroke="#E3E4E4"/>
<path d="M31.2194 22.6831H15.6194C15.4205 22.6831 15.2297 22.6041 15.0891 22.4634C14.9484 22.3228 14.8694 22.132 14.8694 21.9331C14.8694 21.7342 14.9484 21.5434 15.0891 21.4028C15.2297 21.2621 15.4205 21.1831 15.6194 21.1831H31.2194C31.4183 21.1831 31.6091 21.2621 31.7497 21.4028C31.8904 21.5434 31.9694 21.7342 31.9694 21.9331C31.9694 22.132 31.8904 22.3228 31.7497 22.4634C31.6091 22.6041 31.4183 22.6831 31.2194 22.6831ZM31.9694 28.7431C31.9694 28.5442 31.8904 28.3534 31.7497 28.2128C31.6091 28.0721 31.4183 27.9931 31.2194 27.9931H15.6194C15.4205 27.9931 15.2297 28.0721 15.0891 28.2128C14.9484 28.3534 14.8694 28.5442 14.8694 28.7431C14.8694 28.942 14.9484 29.1328 15.0891 29.2734C15.2297 29.4141 15.4205 29.4931 15.6194 29.4931H31.2194C31.4175 29.4905 31.6068 29.4107 31.7469 29.2706C31.8869 29.1305 31.9668 28.9412 31.9694 28.7431ZM31.9094 14.8331C31.8714 14.7439 31.8172 14.6625 31.7494 14.5931L29.2294 12.0731C29.0872 11.9406 28.8992 11.8685 28.7049 11.8719C28.5106 11.8754 28.3252 11.9541 28.1878 12.0915C28.0504 12.2289 27.9716 12.4143 27.9682 12.6086C27.9648 12.8029 28.0369 12.9909 28.1694 13.1331L29.4094 14.3731H15.6194C15.4205 14.3731 15.2297 14.4521 15.0891 14.5928C14.9484 14.7334 14.8694 14.9242 14.8694 15.1231C14.8694 15.322 14.9484 15.5128 15.0891 15.6534C15.2297 15.7941 15.4205 15.8731 15.6194 15.8731H29.4094L28.1694 17.1131C28.0289 17.2537 27.95 17.4444 27.95 17.6431C27.95 17.8419 28.0289 18.0325 28.1694 18.1731C28.2383 18.2437 28.3208 18.2996 28.4119 18.3374C28.503 18.3752 28.6008 18.3942 28.6994 18.3931C28.7979 18.3936 28.8956 18.3744 28.9866 18.3366C29.0776 18.2988 29.1601 18.2432 29.2294 18.1731L31.7494 15.6531C31.8134 15.5957 31.8674 15.5281 31.9094 15.4531C31.9549 15.3561 31.9785 15.2503 31.9785 15.1431C31.9785 15.036 31.9549 14.9301 31.9094 14.8331Z" fill="#636968"/>
</svg>
