<svg width="11" height="8" viewBox="0 0 11 8" fill="none" xmlns="http://www.w3.org/2000/svg">
<path d="M4.51125 7.14137C4.42352 7.14188 4.33654 7.12506 4.25532 7.09188C4.17409 7.05871 4.10021 7.00982 4.03792 6.94804L0.977921 3.86137C0.852386 3.73583 0.78186 3.56557 0.78186 3.38804C0.78186 3.2105 0.852386 3.04024 0.977921 2.9147C1.10346 2.78917 1.27372 2.71864 1.45125 2.71864C1.62879 2.71864 1.79905 2.78917 1.92459 2.9147L4.51125 5.50804L8.95792 1.0547C9.08346 0.929168 9.25372 0.858643 9.43125 0.858643C9.60879 0.858643 9.77905 0.929168 9.90459 1.0547C10.0301 1.18024 10.1006 1.3505 10.1006 1.52804C10.1006 1.70557 10.0301 1.87583 9.90459 2.00137L4.98459 6.92137C4.86107 7.05299 4.6915 7.1318 4.51125 7.14137Z" fill="white"/>
</svg>
